<svg xmlns="http://www.w3.org/2000/svg" xmlns:xlink="http://www.w3.org/1999/xlink" width="500" zoomAndPan="magnify" viewBox="0 0 375 374.999991" height="500" preserveAspectRatio="xMidYMid meet" version="1.0"><defs><g/><clipPath id="99ababc009"><path d="M 6.421875 17 L 361 17 L 361 358 L 6.421875 358 Z M 6.421875 17 " clip-rule="nonzero"/></clipPath></defs><g clip-path="url(#99ababc009)"><path fill="#ff3131" d="M 355.453125 110.578125 C 340.832031 53.878906 292.320312 17.359375 233.757812 17.328125 C 165.972656 17.277344 98.175781 17.308594 30.390625 17.308594 L 56.953125 64.105469 C 115.921875 63.992188 174.863281 64.023438 233.832031 64.074219 C 253.28125 64.074219 270.808594 69.785156 285.574219 82.742188 C 308.582031 102.894531 315.566406 129.035156 312.515625 158.390625 C 309.023438 192.378906 286.714844 220.917969 256.285156 228.214844 C 243.378906 231.332031 229.492188 230.109375 216.128906 231.449219 C 208.554688 232.230469 204.707031 229.085938 201.132812 222.769531 C 176.492188 179.410156 151.480469 136.253906 126.578125 93.0625 C 122.039062 85.167969 117.085938 85.082031 112.597656 92.832031 C 105.988281 104.273438 99.378906 115.722656 92.769531 127.164062 C 64.847656 175.5625 36.917969 223.929688 9.027344 272.359375 C 8.179688 273.84375 7.605469 275.472656 6.433594 278.097656 L 14.003906 278.097656 C 66.417969 278.097656 118.839844 278.214844 171.253906 277.921875 C 175.070312 277.890625 177.71875 278.707031 179.871094 280.566406 C 181.242188 281.707031 182.371094 283.242188 183.511719 285.25 C 197.199219 309.449219 211.203125 333.472656 224.972656 357.640625 L 279.195312 357.640625 C 272.734375 346.398438 266.53125 335.710938 260.382812 325.023438 C 251.621094 309.847656 242.910156 294.652344 234.261719 279.5625 C 235.304688 278.746094 235.628906 278.277344 236.007812 278.253906 C 237.574219 278.109375 239.1875 278.058594 240.785156 277.992188 C 264.753906 277 286.476562 269.492188 306.1875 255.917969 C 354.867188 222.515625 368.554688 161.476562 355.453125 110.578125 Z M 87.113281 230.789062 C 97.945312 211.976562 108.40625 193.832031 119.46875 174.621094 C 125.699219 185.457031 131.726562 195.933594 137.789062 206.476562 C 142.421875 214.484375 147.046875 222.546875 151.792969 230.789062 Z M 87.113281 230.789062 " fill-opacity="1" fill-rule="nonzero"/></g><g fill="#000000" fill-opacity="1"><g transform="translate(359.55168, 363.790553)"><g><path d="M 2.109375 0.078125 C 1.804688 0.078125 1.566406 -0.00390625 1.390625 -0.171875 C 1.222656 -0.335938 1.140625 -0.5625 1.140625 -0.84375 C 1.140625 -1.113281 1.222656 -1.332031 1.390625 -1.5 C 1.566406 -1.675781 1.804688 -1.765625 2.109375 -1.765625 C 2.410156 -1.765625 2.644531 -1.679688 2.8125 -1.515625 C 2.988281 -1.347656 3.078125 -1.128906 3.078125 -0.859375 C 3.078125 -0.578125 2.988281 -0.347656 2.8125 -0.171875 C 2.632812 -0.00390625 2.398438 0.078125 2.109375 0.078125 Z M 2.109375 0.078125 "/></g></g></g></svg>